<svg xmlns="http://www.w3.org/2000/svg" viewBox="0 0 512 512">
  <circle cx="256" cy="256" r="240" fill="#fdf2f8"/>
  
  <!-- Base Plate -->
  <path d="M80 430 Q 256 460 432 430 L 410 450 Q 256 470 102 450 Z" fill="#9ca3af"/>
  <ellipse cx="256" cy="430" rx="176" ry="20" fill="#e5e7eb"/>
  
  <!-- Bottom Layer -->
  <path d="M128 430 v -100 c 0 -15 256 -15 256 0 v 100 c 0 15 -256 15 -256 0" fill="#ec4899"/>
  <ellipse cx="256" cy="330" rx="128" ry="20" fill="#f472b6"/>
  
  <!-- Middle Layer -->
  <path d="M160 330 v -90 c 0 -15 192 -15 192 0 v 90 c 0 15 -192 15 -192 0" fill="#db2777"/>
  <ellipse cx="256" cy="240" rx="96" ry="18" fill="#ec4899"/>

  <!-- Top Layer -->
  <path d="M192 240 v -80 c 0 -15 128 -15 128 0 v 80 c 0 15 -128 15 -128 0" fill="#be185d"/>
  <ellipse cx="256" cy="160" rx="64" ry="15" fill="#db2777"/>
  
  <!-- Cherry on Top -->
  <circle cx="256" cy="120" r="20" fill="#ef4444"/>
  <path d="M256 100 Q 270 80 290 90" fill="none" stroke="#22c55e" stroke-width="4" stroke-linecap="round"/>

  <!-- Dripping Frosting for Top Layer -->
  <path d="M192 165 
           Q 200 190 208 165
           Q 216 195 224 165
           Q 232 185 240 165
           Q 248 190 256 165
           Q 264 195 272 165
           Q 280 185 288 165
           Q 296 190 304 165
           Q 312 195 320 165" 
        fill="#fbcfe8" stroke="#fbcfe8" stroke-width="4" stroke-linecap="round"/>

  <text x="256" y="50" font-family="'Inter', Arial, sans-serif" font-size="32" font-weight="900" fill="#831843" text-anchor="middle" letter-spacing="1">ADDIS CAKE</text>
</svg>
